<?xml version="1.0" standalone="no"?>
<!DOCTYPE svg PUBLIC "-//W3C//DTD SVG 20010904//EN"
 "http://www.w3.org/TR/2001/REC-SVG-20010904/DTD/svg10.dtd">
<svg version="1.0" xmlns="http://www.w3.org/2000/svg"
 width="1120.000000pt" height="1120.000000pt" viewBox="0 0 1120.000000 1120.000000"
 preserveAspectRatio="xMidYMid meet">
<metadata>
Created by potrace 1.14, written by Peter Selinger 2001-2017
</metadata>
<g transform="translate(0.000000,1120.000000) scale(0.100000,-0.100000)"
fill="#000000" stroke="none">
<path d="M2240 8779 c0 -1331 3 -2419 8 -2417 46 22 128 64 132 68 10 10 104
55 108 52 3 -2 8 0 11 5 3 5 71 42 151 83 80 41 217 111 305 156 88 46 198
102 245 125 47 23 97 51 113 61 15 11 27 16 27 12 0 -3 6 -2 13 4 13 11 14 82
2 102 -3 6 -3 10 2 10 7 0 9 114 3 145 -1 6 -1 12 0 15 5 15 4 70 -2 70 -4 0
-4 10 1 23 5 12 5 32 0 45 -5 12 -5 32 0 45 5 12 5 31 1 42 -4 11 -5 24 -2 29
8 14 8 126 0 126 -4 0 -3 13 2 29 4 15 4 34 0 41 -4 6 -4 27 0 45 4 18 3 39
-1 48 -6 9 -5 18 0 21 4 3 5 24 1 46 -4 21 -5 42 -2 45 7 6 7 129 0 141 -3 5
-2 18 2 29 4 11 4 30 -1 41 -4 12 -5 25 -2 28 9 8 10 126 1 126 -4 0 -3 13 2
29 4 15 4 34 0 41 -4 6 -4 27 0 45 4 18 3 39 -1 48 -6 9 -5 18 0 21 4 3 5 24
1 46 -4 21 -5 42 -2 44 8 9 7 236 -1 236 -5 0 -5 5 -1 11 8 14 9 113 0 127 -3
6 -2 13 3 16 4 3 5 23 1 44 -3 21 -3 47 0 58 4 10 4 29 -1 40 -4 12 -5 25 -2
28 9 8 10 126 1 126 -4 0 -3 13 2 29 4 15 4 34 0 41 -4 6 -4 27 0 45 4 18 3
39 -1 48 -5 9 -5 18 -1 21 5 3 6 26 2 51 -4 25 -4 45 -1 45 5 0 6 67 1 80 -2
3 -1 10 0 15 6 30 4 135 -3 135 -5 0 -5 5 -1 11 6 10 9 101 4 124 -1 6 -2 15
0 20 1 6 1 44 0 85 -1 41 -1 82 0 90 0 8 0 25 0 38 0 18 5 22 28 20 15 -1 33
1 39 5 6 4 14 4 16 0 4 -7 111 -8 127 -2 3 1 10 0 15 -1 28 -6 185 -4 185 3 0
5 5 5 11 2 9 -6 99 -9 124 -5 6 2 15 1 20 0 11 -3 297 -2 305 1 3 1 10 0 15
-1 11 -3 297 -2 305 1 3 1 10 0 15 -1 11 -3 297 -2 305 1 3 1 10 0 15 -1 30
-6 325 -4 325 3 0 5 5 5 11 1 10 -6 111 -9 134 -4 6 1 12 2 15 0 16 -6 113 -4
117 3 2 4 9 4 15 1 15 -10 188 -10 188 -1 0 5 5 5 11 1 10 -6 111 -9 134 -4 6
1 12 1 15 0 15 -6 73 -4 77 3 2 4 9 4 15 1 16 -10 228 -11 228 -1 0 5 5 5 11
1 10 -6 111 -9 134 -4 6 1 12 2 15 0 16 -6 113 -4 117 3 2 4 9 4 15 1 15 -10
188 -10 188 -1 0 5 5 5 11 1 10 -6 111 -9 134 -4 6 1 12 1 15 0 15 -6 73 -4
77 3 2 4 9 4 15 1 16 -10 228 -11 228 -1 0 5 5 5 11 1 7 -4 24 -7 39 -6 20 0
31 -7 44 -31 19 -35 23 -43 81 -137 22 -36 47 -77 55 -91 8 -14 40 -67 70
-118 30 -50 60 -99 65 -109 90 -153 248 -412 252 -412 4 0 155 77 658 335 94
48 176 92 183 97 6 6 12 7 12 4 0 -4 12 1 27 12 16 10 42 24 60 31 54 22 59
36 29 79 -14 21 -26 43 -26 49 0 6 -4 13 -8 15 -5 2 -25 32 -46 68 -20 36 -75
128 -121 205 -101 167 -99 164 -147 242 -21 35 -38 67 -38 73 0 5 -4 10 -10
10 -5 0 -10 4 -10 8 0 4 -72 127 -160 273 -88 145 -167 278 -176 294 -8 17
-35 62 -60 100 -24 39 -50 82 -56 98 l-12 27 -2803 0 -2803 0 0 -2421z"/>
<path d="M8820 8890 c-74 -37 -140 -73 -147 -79 -7 -6 -16 -11 -20 -11 -5 0
-38 -15 -73 -33 -172 -90 -614 -315 -685 -350 -44 -22 -83 -45 -87 -51 -4 -6
-8 -7 -8 -3 0 4 -19 -3 -42 -16 -24 -14 -178 -93 -343 -177 -165 -84 -310
-160 -322 -168 -13 -8 -23 -10 -23 -6 0 5 -4 5 -8 -1 -4 -5 -34 -23 -67 -40
-33 -16 -86 -44 -117 -62 -32 -18 -58 -29 -58 -26 0 3 -6 1 -12 -5 -7 -5 -110
-59 -228 -120 -118 -60 -294 -150 -390 -199 -368 -189 -425 -217 -432 -215 -5
1 -8 -2 -8 -6 0 -5 -28 -21 -62 -37 -35 -16 -65 -31 -68 -34 -3 -3 -115 -62
-250 -130 -231 -117 -621 -315 -865 -440 -60 -31 -112 -59 -115 -63 -3 -3 -17
-9 -32 -13 -15 -4 -32 -13 -39 -21 -6 -8 -17 -14 -23 -14 -7 0 -50 -20 -96
-45 -46 -25 -89 -45 -96 -45 -7 0 -14 -4 -16 -8 -1 -5 -66 -41 -143 -79 -77
-39 -219 -112 -315 -161 -335 -172 -395 -202 -404 -201 -5 0 -12 -3 -15 -9 -3
-5 -51 -31 -106 -58 -55 -27 -102 -51 -105 -54 -3 -3 -77 -41 -165 -85 -88
-44 -168 -86 -177 -94 -10 -8 -18 -11 -18 -7 0 4 -13 -2 -30 -14 -17 -12 -30
-18 -30 -15 0 3 -12 -2 -28 -12 -15 -10 -55 -32 -89 -48 -34 -17 -63 -32 -63
-35 0 -5 132 -74 615 -320 143 -73 266 -137 272 -142 7 -6 13 -7 13 -4 0 4 12
-1 28 -11 15 -11 89 -50 165 -88 76 -37 140 -72 143 -77 3 -4 14 -8 24 -8 10
0 20 -3 22 -7 2 -5 100 -57 218 -116 118 -59 229 -115 245 -124 17 -9 37 -19
45 -24 17 -9 283 -144 590 -301 118 -61 221 -115 228 -120 6 -6 12 -7 12 -3 0
4 6 3 13 -3 11 -10 135 -74 602 -312 116 -58 219 -112 230 -118 11 -6 27 -13
35 -16 8 -3 89 -45 180 -92 174 -91 565 -290 840 -430 90 -46 166 -81 169 -79
5 6 5 1245 0 1249 -2 2 -119 61 -259 132 -140 71 -257 132 -260 135 -6 6 -31
16 -44 17 -5 0 -12 4 -15 9 -8 10 -138 75 -147 73 -4 -1 -10 2 -13 7 -3 4 -51
31 -106 58 -55 28 -102 52 -105 55 -3 3 -68 36 -145 74 -77 38 -143 74 -147
80 -4 6 -8 8 -8 5 0 -3 -28 9 -62 27 -35 19 -75 39 -89 44 -14 6 -46 22 -70
35 -24 13 -118 61 -209 107 -91 46 -167 85 -170 88 -3 3 -63 34 -135 70 -71
35 -131 68 -133 72 -2 4 -12 8 -22 8 -9 0 -23 7 -30 15 -7 8 -16 13 -20 10 -8
-5 -48 21 -40 27 3 2 48 26 100 52 52 27 187 96 300 153 113 58 302 155 420
215 242 124 593 304 810 415 80 41 151 79 158 85 6 6 12 8 12 4 0 -3 23 8 50
24 28 16 50 27 50 25 0 -2 21 8 48 23 26 15 83 45 127 67 44 21 83 43 86 48 3
5 9 8 13 8 7 -1 62 26 351 174 105 54 246 126 315 161 68 35 131 64 140 63 8
0 11 -2 5 -5 -8 -3 -12 -183 -5 -219 1 -5 1 -12 0 -15 -5 -15 -4 -70 2 -70 4
0 4 -10 -1 -22 -5 -13 -5 -33 0 -46 5 -12 5 -32 0 -45 -5 -12 -5 -31 -1 -42 4
-11 5 -24 2 -29 -8 -14 -8 -126 0 -126 4 0 3 -13 -2 -29 -4 -15 -4 -34 0 -41
4 -6 4 -27 0 -45 -4 -18 -3 -39 1 -48 6 -9 5 -18 0 -21 -4 -3 -5 -24 -1 -46 4
-21 5 -42 2 -45 -7 -6 -7 -129 0 -141 3 -5 2 -18 -2 -29 -4 -11 -4 -30 1 -41
4 -12 5 -25 2 -28 -9 -8 -10 -126 -1 -126 4 0 3 -13 -2 -29 -4 -15 -4 -34 0
-41 4 -6 4 -27 0 -45 -4 -18 -3 -39 1 -48 6 -9 5 -18 0 -21 -4 -3 -5 -24 -1
-46 4 -21 5 -42 2 -45 -5 -5 -7 -269 -2 -290 1 -5 1 -12 0 -15 -5 -15 -4 -70
2 -70 4 0 4 -10 -1 -22 -5 -13 -5 -33 0 -46 5 -12 5 -32 0 -45 -5 -12 -5 -31
-1 -42 4 -11 5 -24 2 -29 -8 -14 -8 -126 0 -126 4 0 3 -13 -2 -29 -4 -15 -4
-34 0 -41 4 -6 4 -27 0 -45 -4 -18 -3 -39 1 -48 6 -9 5 -18 0 -21 -4 -3 -5
-24 -1 -46 4 -21 5 -42 2 -45 -5 -5 -7 -269 -2 -290 1 -5 1 -12 0 -15 -5 -15
-4 -70 2 -70 4 0 4 -10 -1 -22 -5 -13 -5 -33 0 -46 5 -12 5 -32 0 -45 -5 -12
-5 -31 -1 -42 4 -11 5 -24 2 -29 -8 -14 -8 -126 0 -126 4 0 3 -13 -2 -29 -4
-15 -4 -34 0 -41 4 -6 4 -27 0 -45 -4 -18 -3 -39 1 -48 6 -9 5 -18 0 -21 -4
-3 -5 -24 -1 -46 4 -21 5 -42 2 -45 -7 -6 -7 -129 0 -141 3 -5 2 -18 -2 -29
-4 -11 -4 -30 1 -41 4 -12 5 -25 2 -28 -9 -8 -10 -126 -1 -126 4 0 3 -13 -2
-29 -4 -15 -4 -34 0 -41 4 -6 4 -27 0 -45 -4 -18 -3 -39 1 -48 6 -9 5 -18 0
-21 -4 -3 -5 -24 -1 -46 4 -21 5 -42 2 -45 -3 -3 -5 -51 -5 -106 1 -88 3 -104
19 -113 15 -9 256 -133 516 -267 32 -16 59 -28 60 -27 2 1 21 -10 43 -23 22
-14 112 -61 200 -104 88 -44 162 -82 165 -85 3 -3 31 -17 63 -32 l57 -28 0
3360 c0 1848 -1 3360 -2 3360 -2 -1 -64 -32 -138 -70z"/>
<path d="M2240 2420 l0 -2420 2801 2 2802 3 51 85 c28 47 60 102 71 123 11 20
23 37 27 37 5 0 8 4 8 9 0 8 224 390 270 461 6 8 13 22 17 30 4 8 9 17 12 20
11 9 141 231 141 240 0 5 3 10 8 12 4 2 50 75 102 163 52 88 113 190 136 226
61 95 61 100 11 124 -162 79 -633 321 -635 328 -2 4 -12 7 -22 7 -10 0 -20 3
-22 7 -2 6 -228 124 -268 141 -4 1 -15 -13 -24 -33 -9 -19 -20 -35 -24 -35 -4
0 -13 -12 -20 -28 -20 -44 -44 -86 -59 -100 -7 -7 -16 -24 -19 -38 -3 -13 -10
-24 -15 -24 -5 0 -9 -4 -9 -9 0 -5 -22 -46 -50 -90 -27 -44 -50 -85 -50 -91 0
-6 -7 -13 -15 -16 -8 -4 -15 -10 -15 -15 0 -5 -47 -88 -105 -184 -58 -96 -105
-179 -105 -185 0 -5 -4 -10 -9 -10 -5 0 -13 -9 -16 -21 -4 -12 -12 -18 -21
-15 -8 3 -14 2 -14 -2 0 -4 -73 -6 -162 -5 -90 2 -170 3 -178 3 -8 0 -64 0
-125 0 -60 0 -114 0 -120 0 -179 -4 -335 -4 -335 0 0 3 -9 6 -20 6 -11 0 -20
-3 -20 -6 0 -3 -73 -4 -162 -3 -90 2 -170 3 -178 3 -8 0 -64 0 -125 0 -60 0
-114 0 -120 0 -179 -4 -335 -4 -335 0 0 3 -9 6 -20 6 -11 0 -20 -3 -20 -6 0
-3 -73 -4 -162 -3 -90 2 -170 3 -178 3 -8 0 -64 0 -125 0 -60 0 -114 0 -120 0
-179 -4 -335 -4 -335 0 0 3 -9 6 -20 6 -11 0 -20 -3 -20 -6 0 -3 -73 -4 -162
-3 -90 2 -170 3 -178 3 -8 0 -64 0 -125 0 -60 0 -117 0 -125 0 -8 0 -82 -2
-165 -3 -163 -3 -188 0 -182 17 2 6 0 23 -4 38 -4 15 -4 30 0 33 5 2 5 22 1
43 -3 21 -3 47 0 58 4 10 4 29 -1 40 -4 12 -5 25 -2 28 9 8 10 126 1 126 -4 0
-3 13 2 29 4 15 4 34 0 41 -4 6 -4 27 0 45 4 18 3 39 -1 48 -5 9 -5 18 -1 21
5 3 6 26 2 51 -4 25 -4 45 -1 45 5 0 6 67 1 80 -2 3 -1 10 0 15 6 30 4 135 -3
135 -5 0 -5 5 -1 11 6 10 9 101 4 124 -1 6 -2 12 -1 15 7 19 4 170 -2 170 -5
0 -5 5 -1 11 8 14 9 113 0 127 -3 6 -2 13 3 16 4 3 5 23 1 44 -3 21 -3 47 0
58 4 10 4 29 -1 40 -4 12 -5 25 -2 28 9 8 10 126 1 126 -4 0 -3 13 2 29 4 15
4 34 0 41 -4 6 -4 27 0 45 4 18 3 39 -1 48 -5 9 -5 18 -1 21 5 3 6 26 2 51 -4
25 -4 45 -1 45 5 0 6 67 1 80 -2 3 -1 10 0 15 6 30 4 135 -3 135 -5 0 -5 5 -1
11 8 14 9 113 0 127 -3 6 -2 13 3 16 4 3 5 23 1 44 -3 21 -3 47 0 58 4 10 4
29 -1 40 -4 12 -5 25 -2 28 9 8 10 126 1 126 -4 0 -3 13 2 29 4 15 4 34 0 41
-4 6 -4 27 0 45 4 18 3 39 -1 48 -6 9 -5 18 0 21 4 3 5 24 1 46 -4 21 -5 42
-2 45 5 5 6 138 2 160 -1 6 -1 15 0 20 1 6 3 23 3 39 2 28 -4 33 -128 95 -71
36 -131 69 -133 73 -2 5 -11 8 -21 8 -9 0 -21 4 -26 9 -6 5 -84 46 -175 92
-91 45 -173 90 -184 98 -10 9 -20 15 -22 13 -4 -2 -66 28 -291 144 l-143 74 0
-2420z"/>
</g>
</svg>
