<svg xmlns="http://www.w3.org/2000/svg" id="_图层_2" data-name="图层 2" viewBox="0 0 82.54 28.34"><defs><style>.cls-2{stroke-width:0;fill:#2d5c87}</style></defs><g id="_图层_1-2" data-name="图层 1"><path d="M4.72 17.56V3.54H0V5.9h2.36v11.33L.03 19.56l1.67 1.66 1.67-1.67 1.68 1.67v.01h13.82v-2.36H6.03zM0 0h4.72v2.36H0zm30.66 6.86L28.3 8.22l-7.08 4.08v2.73l3.54-2.04v3.96l-2.65 2.65 1.67 1.67 2.36-2.36.98-.98v-6.31l3.54-2.04 3.54 2.04v9.62h2.36v-8.25l3.54 2.04V12.3l-7.08-4.08zm28.31-5.68h-5.9v9.43h2.35V3.54h3.55v3.53h-2.44v2.36h2.44v1.18h2.36V1.18zM42.45 12.97l5.9-5.89h3.54V4.72h-3.54V3.54h3.54V1.18h-6.28L45.99 0h-2.36l-.41 1.18-.77 2.36h3.54v1.18h-3.53v2.36h2.55l-2.56 2.56z" class="cls-2"/><path d="M48.35 8.26h3.54v2.36h-3.54zm23.58-4.7L70.76 1.2H68.4l1.17 2.36h-3.53L67.22.02h-2.36l-1.18 3.54v2.36h8.25zm3.54 15.33v-3.54h5.9v-2.36h-5.9v-2.36h-2.36v10.61h9.43v-2.35zm-30.66-7.08v9.44h2.36v-1.18h1.18v-.01l2.36-2.36v.01h4.72v-2.36h-4.72v.01-.01l-2.36 2.36h-1.18v-3.54h9.44v7.07h2.36v-9.43zm18.87-4.69v14.12h2.36V9.45h3.54v2.36h-2.36v2.35h2.36v2.37h-2.36v2.36h2.36v2.35h2.36V7.09h-8.26zm12.97-4.74h4.72v2.36h-4.72z" class="cls-2"/><path d="M75.47 9.45h7.07V7.09h-7.07V.02h-2.36v9.43zM18.87 5.9V3.54h-7.08V0H9.44v3.54H5.9V5.9h3.54v7.63l-2.66 2.66 1.67 1.67 3.34-3.35V5.9h4.72v9.43h-2.36v2.36h4.72zM37.74 0H21.22v9.43h3.79l4.08-2.36h-5.51V2.36h5.91v1.17h-4.72v2.36h4.72v.96l1.17-.68 1.19.68v-.97h5.89v1.18h-5.51l4.08 2.36h3.79V0zm0 3.53h-5.89V2.36h5.89z" class="cls-2"/><path d="M11.91 23.63v4.46l.25.25h.34v-4.46l-.25-.25zm68.05 0h-.34v4.46l.25.25h.34v-4.46zm-34.19 0v4.46l.25.25h.34v-4.46l-.25-.25zm-42.79-.01h-.59v4.71H4.5l.6-.6v-1.62l-.18-.18.18-.18V24.2l-.6-.6H2.98Zm1.52 3.87-.25.25H2.98v-1.47h1.27l.25.25zm0-2.06-.25.25H2.98v-1.47h1.27l.25.25zm25.46 1.62-1.57-3.17-.25-.25h-.42v4.71h.59v-3.3l1.58 3.09.21.21h.44v-4.71h-.58zm-9.23-3.42h-.38l-.99 4.71h.59l.69-3.42.75 3.42h.59l-1.01-4.47zm50.79 0h-.39l-.98 4.71h.59l.69-3.42.74 3.42h.59l-1-4.47zM38.25 27.6l-.15.15h-.98l-.17-.17v-1.23l-.59.3v1.17l.52.52h1.46l.5-.5v-4.21h-.59zm17.28-3.39.35-.58h-2.71v4.71h2.24l.35-.59h-2v-1.44h1.62l.35-.59h-1.97v-1.51zm7.17 3.54h.59v.59h-.59z" style="fill:#29a0fa;stroke-width:0"/></g></svg>