<?xml version="1.0" encoding="UTF-8"?>
<svg id="_图层_2" data-name="图层 2" xmlns="http://www.w3.org/2000/svg" viewBox="0 0 82.54 28.34">
  <defs>
    <style>
      .cls-1 {
        fill: #29a0fa;
      }

      .cls-1, .cls-2 {
        stroke-width: 0px;
      }

      .cls-2 {
        fill: #2d5c87;
      }
    </style>
  </defs>
  <g id="_图层_1-2" data-name="图层 1">
    <g>
      <g>
        <polygon class="cls-2" points="4.72 17.56 4.72 5.9 4.72 4.71 4.72 3.54 0 3.54 0 5.9 2.36 5.9 2.36 17.23 .03 19.56 1.7 21.22 3.37 19.55 5.05 21.22 5.05 21.23 18.87 21.23 18.87 18.87 6.03 18.87 4.72 17.56"/>
        <rect class="cls-2" width="4.72" height="2.36"/>
        <polygon class="cls-2" points="30.66 6.86 28.3 8.22 21.22 12.3 21.22 15.03 24.76 12.99 24.76 16.95 22.11 19.6 23.78 21.27 26.14 18.91 27.12 17.93 27.12 11.62 30.66 9.58 34.2 11.62 34.2 21.24 36.56 21.24 36.56 12.99 40.1 15.03 40.1 12.3 33.02 8.22 30.66 6.86"/>
        <polygon class="cls-2" points="58.97 1.18 55.42 1.18 53.07 1.18 53.07 3.54 53.07 10.61 55.42 10.61 55.42 3.54 58.97 3.54 58.97 7.07 56.53 7.07 56.53 9.43 58.97 9.43 58.97 10.61 61.33 10.61 61.33 1.18 61.32 1.18 58.97 1.18"/>
        <polygon class="cls-2" points="42.45 12.97 48.35 7.08 51.89 7.08 51.89 4.72 48.35 4.72 48.35 3.54 51.89 3.54 51.89 1.18 45.61 1.18 45.99 0 43.63 0 43.22 1.18 42.45 3.54 44.78 3.54 45.99 3.54 45.99 4.72 42.46 4.72 42.46 7.08 45.01 7.08 42.45 9.64 42.45 12.97"/>
        <rect class="cls-2" x="48.35" y="8.26" width="3.54" height="2.36"/>
        <polygon class="cls-2" points="71.93 3.56 71.93 3.56 71.93 3.56 71.93 3.56 70.76 1.2 68.4 1.2 69.57 3.56 66.04 3.56 67.22 .02 64.86 .02 63.68 3.56 63.68 5.92 71.93 5.92 71.93 3.56"/>
        <polygon class="cls-2" points="75.47 18.89 75.47 15.35 81.37 15.35 81.37 12.99 75.47 12.99 75.47 10.63 73.11 10.63 73.11 21.24 74.29 21.24 74.29 21.24 82.54 21.24 82.54 18.89 75.47 18.89"/>
        <polygon class="cls-2" points="44.81 11.81 44.81 21.25 47.17 21.25 47.17 20.07 48.35 20.07 48.35 20.06 50.71 17.7 50.71 17.7 50.71 17.71 55.43 17.71 55.43 15.35 50.71 15.35 50.71 15.36 50.71 15.35 48.35 17.71 47.17 17.71 47.17 14.17 56.61 14.17 56.61 21.24 58.97 21.24 58.97 11.81 44.81 11.81 44.81 11.81"/>
        <polygon class="cls-2" points="63.68 7.12 63.68 9.45 63.68 21.24 66.04 21.24 66.04 9.45 69.58 9.45 69.58 11.81 67.22 11.81 67.22 14.16 69.58 14.16 69.58 16.53 67.22 16.53 67.22 18.89 69.58 18.89 69.58 21.24 71.94 21.24 71.94 18.89 71.94 16.53 71.94 14.16 71.94 11.81 71.94 9.45 71.94 7.12 71.94 7.09 63.68 7.09 63.68 7.12"/>
        <rect class="cls-2" x="76.65" y="2.38" width="4.72" height="2.36"/>
        <polygon class="cls-2" points="75.47 9.45 82.54 9.45 82.54 7.09 75.47 7.09 75.47 .02 73.11 .02 73.11 9.45 74.29 9.45 75.47 9.45"/>
        <polygon class="cls-2" points="18.87 5.9 18.87 3.54 16.51 3.54 11.79 3.54 11.79 0 9.44 0 9.44 3.54 5.9 3.54 5.9 5.9 9.44 5.9 9.44 13.53 6.78 16.19 8.45 17.86 11.79 14.51 11.79 14.51 11.79 14.51 11.79 5.9 16.51 5.9 16.51 15.33 14.15 15.33 14.15 17.69 18.87 17.69 18.87 15.33 18.87 15.33 18.87 5.9"/>
        <path class="cls-2" d="m37.74,0h-16.52v9.43h.04s3.75,0,3.75,0l4.08-2.36h-5.51V2.36h5.91v1.17h-4.72v2.36h4.72v.96l1.17-.68,1.19.68v-.97h5.89v1.18h-5.51l4.08,2.36h1.76s2.03,0,2.03,0V0h-2.36Zm0,3.53h-5.89v-1.17h5.89v1.17Z"/>
      </g>
      <g>
        <polygon class="cls-1" points="11.91 23.63 11.91 28.09 12.16 28.34 12.5 28.34 12.5 23.88 12.25 23.63 11.91 23.63"/>
        <polygon class="cls-1" points="79.96 23.63 79.62 23.63 79.62 28.09 79.87 28.34 80.21 28.34 80.21 23.88 79.96 23.63"/>
        <polygon class="cls-1" points="45.77 23.63 45.77 28.09 46.02 28.34 46.36 28.34 46.36 23.88 46.11 23.63 45.77 23.63"/>
        <path class="cls-1" d="m2.98,23.62h-.59v4.71h2.11l.6-.6v-1.62l-.18-.18.18-.18v-1.55l-.6-.6h-1.52Zm1.52,3.87l-.25.25h-1.27v-1.47h1.27l.25.25v.97Zm0-2.06l-.25.25h-1.27v-1.47h1.27l.25.25v.97Z"/>
        <polygon class="cls-1" points="29.96 27.05 28.39 23.88 28.14 23.63 27.72 23.63 27.72 28.34 28.31 28.34 28.31 25.04 29.89 28.13 30.1 28.34 30.54 28.34 30.54 23.63 29.96 23.63 29.96 27.05"/>
        <polygon class="cls-1" points="20.73 23.63 20.35 23.63 20.35 23.63 20.35 23.63 19.36 28.34 19.95 28.34 20.64 24.92 21.39 28.34 21.98 28.34 20.97 23.87 20.73 23.63"/>
        <polygon class="cls-1" points="71.52 23.63 71.13 23.63 71.13 23.63 71.13 23.63 70.15 28.34 70.74 28.34 71.43 24.92 72.17 28.34 72.76 28.34 71.76 23.87 71.52 23.63"/>
        <polygon class="cls-1" points="38.25 27.6 38.1 27.75 37.12 27.75 36.95 27.58 36.95 26.35 36.36 26.65 36.36 27.82 36.88 28.34 38.34 28.34 38.84 27.84 38.84 23.63 38.25 23.63 38.25 27.6"/>
        <polygon class="cls-1" points="55.53 24.21 55.88 23.63 53.76 23.63 53.17 23.63 53.17 24.21 53.17 25.72 53.17 26.31 53.17 27.75 53.17 28.34 53.76 28.34 55.41 28.34 55.76 27.75 53.76 27.75 53.76 26.31 55.38 26.31 55.73 25.72 53.76 25.72 53.76 24.21 55.53 24.21"/>
        <rect class="cls-1" x="62.7" y="27.75" width=".59" height=".59"/>
      </g>
    </g>
  </g>
</svg>