<?xml version="1.0" encoding="UTF-8"?>
<svg id="_图层_2" data-name="图层 2" xmlns="http://www.w3.org/2000/svg" viewBox="0 0 21.23 35.37">
  <defs>
    <style>
      .cls-1 {
        fill: #29a0fa;
      }

      .cls-1, .cls-2 {
        stroke-width: 0px;
      }

      .cls-2 {
        fill: #2d5c87;
      }
    </style>
  </defs>
  <g id="_图层_1-2" data-name="图层 1">
    <g>
      <polygon class="cls-2" points="3.54 3.54 15.68 3.54 17.39 6.39 20.55 4.77 17.69 0 16.49 0 0 0 0 15.29 3.54 13.47 3.54 3.54"/>
      <polygon class="cls-2" points="15.68 31.84 3.54 31.84 3.54 21.9 0 20.09 0 35.37 17.69 35.37 20.55 30.6 17.39 28.99 15.68 31.84"/>
      <polygon class="cls-1" points="21.23 7.07 .48 17.69 15.33 25.28 15.33 21.31 8.25 17.69 17.69 12.86 17.69 20.67 17.69 22.52 17.69 26.49 21.23 28.3 21.23 7.07"/>
    </g>
  </g>
</svg>